<?xml version="1.0" standalone="no"?><!DOCTYPE svg PUBLIC "-//W3C//DTD SVG 1.1//EN" "http://www.w3.org/Graphics/SVG/1.1/DTD/svg11.dtd"><svg t="1763451617806" class="icon" viewBox="0 0 1024 1024" version="1.1" xmlns="http://www.w3.org/2000/svg" p-id="5089" xmlns:xlink="http://www.w3.org/1999/xlink" width="200" height="200"><path d="M284.444444 91.022222h500.622223a182.044444 182.044444 0 0 1 182.044444 182.044445v637.155555a45.511111 45.511111 0 0 1-45.511111 45.511111H147.911111a45.511111 45.511111 0 0 1-45.511111-45.511111V273.066667a182.044444 182.044444 0 0 1 182.044444-182.044445z" fill="#E2A6D9" p-id="5090"></path><path d="M238.933333 113.777778a159.288889 159.288889 0 0 0-159.288889 159.288889v611.396266a68.266667 68.266667 0 0 0 52.656356 66.446223C275.342222 984.496356 394.376533 1001.244444 489.244444 1001.244444c94.867911 0 213.902222-16.748089 356.943645-50.335288A68.266667 68.266667 0 0 0 898.844444 884.462933V273.066667a159.288889 159.288889 0 0 0-159.288888-159.288889H238.933333z" fill="#FFE115" p-id="5091"></path><path d="M238.933333 113.777778a159.288889 159.288889 0 0 0-159.288889 159.288889v611.396266a68.266667 68.266667 0 0 0 52.656356 66.446223C275.342222 984.496356 394.376533 1001.244444 489.244444 1001.244444c94.867911 0 213.902222-16.748089 356.943645-50.335288A68.266667 68.266667 0 0 0 898.844444 884.462933V273.066667a159.288889 159.288889 0 0 0-159.288888-159.288889H238.933333z m0-22.755556h500.622223a182.044444 182.044444 0 0 1 182.044444 182.044445v611.396266a91.022222 91.022222 0 0 1-70.223644 88.610134C706.787556 1007.024356 586.069333 1024 489.244444 1024c-96.824889 0-217.543111-16.975644-362.131911-50.926933A91.022222 91.022222 0 0 1 56.888889 884.462933V273.066667a182.044444 182.044444 0 0 1 182.044444-182.044445z" fill="#6530AF" p-id="5092"></path><path d="M321.9456 9.807644l311.136711 5.461334c60.984889 61.622044 91.477333 98.167467 91.477333 109.636266 0 17.180444 1.501867 105.494756-23.643022 119.239112-25.122133 13.7216-95.209244 37.319111-131.822933 47.786666-36.613689 10.422044-161.792 10.604089-204.458667 5.302045-42.689422-5.3248-88.6784-32.540444-101.489778-46.921956-12.834133-14.404267-47.263289-45.374578-39.185066-76.5952 8.100978-31.243378 20.935111-84.081778 34.087822-105.449244 8.783644-14.244978 30.082844-33.746489 63.8976-58.459023z" fill="#FFE115" p-id="5093"></path><path d="M328.339911 22.755556l-56.092444 56.069688A113.777778 113.777778 0 0 0 352.711111 273.066667h250.993778a113.777778 113.777778 0 0 0 80.440889-194.241423L628.076089 22.755556H328.339911z m-9.4208-22.755556h318.577778l62.737067 62.737067A136.533333 136.533333 0 0 1 603.704889 295.822222H352.711111a136.533333 136.533333 0 0 1-96.551822-233.085155L318.919111 0z" fill="#6530AF" p-id="5094"></path><path d="M575.943111 22.641778h44.259556l-118.829511 219.500089H459.434667z" fill="#A8FDFB" p-id="5095"></path><path d="M623.069867 17.339733a11.377778 11.377778 0 0 1 20.024889 10.831645L499.256889 293.842489a11.377778 11.377778 0 0 1-20.024889-10.8544l143.837867-265.648356z" fill="#6530AF" p-id="5096"></path><path d="M339.694933 16.861867a11.377778 11.377778 0 1 0-19.478755 11.787377l162.770489 269.084445a11.377778 11.377778 0 0 0 19.456-11.787378l-162.747734-269.084444z" fill="#6530AF" p-id="5097"></path><path d="M477.866667 284.444444h22.755555v717.255112h-22.755555z" fill="#FFFFFF" p-id="5098"></path><path d="M445.8496 317.508267c-38.320356-15.701333-102.718578 55.045689-90.885689 79.894755 9.193244 19.342222 40.391111 50.608356 57.366756 43.918222 58.026667-22.9376 71.816533-108.1344 33.518933-123.812977z" fill="#FFFFFF" p-id="5099"></path><path d="M411.2384 392.669867a2.275556 2.275556 0 0 1-3.185778-3.231289c6.326044-6.280533 12.014933-14.176711 16.543289-23.074134 2.798933-5.484089 5.051733-11.150222 6.667378-16.748088a2.275556 2.275556 0 0 1 4.369067 1.274311 99.601067 99.601067 0 0 1-6.9632 17.544533c-4.778667 9.329778-10.740622 17.6128-17.430756 24.234667z" fill="#6530AF" p-id="5100"></path><path d="M532.639289 317.508267c38.320356-15.701333 102.718578 55.045689 90.885689 79.894755-9.193244 19.342222-40.391111 50.608356-57.366756 43.918222-58.026667-22.9376-71.816533-108.1344-33.518933-123.812977z" fill="#FFFFFF" p-id="5101"></path><path d="M567.250489 392.669867a2.275556 2.275556 0 0 0 3.185778-3.231289 90.225778 90.225778 0 0 1-16.543289-23.074134 95.049956 95.049956 0 0 1-6.667378-16.748088 2.275556 2.275556 0 0 0-4.369067 1.274311c1.706667 5.870933 4.050489 11.787378 6.9632 17.544533 4.778667 9.329778 10.740622 17.6128 17.430756 24.234667z" fill="#6530AF" p-id="5102"></path><path d="M450.446222 319.601778C425.005511 350.208 356.693333 361.380978 313.844622 322.446222 297.870222 307.928178 313.844622 257.547378 329.045333 237.181156c16.611556-22.209422 96.551822-3.754667 122.88 32.540444A45.283556 45.283556 0 0 0 443.733333 295.822222c0 8.715378 2.4576 16.861867 6.712889 23.779556z" fill="#FFFFFF" p-id="5103"></path><path d="M450.446222 319.601778C425.005511 350.208 356.693333 361.380978 313.844622 322.446222 297.870222 307.928178 313.844622 257.547378 329.045333 237.181156c16.611556-22.209422 96.551822-3.754667 122.88 32.540444A45.283556 45.283556 0 0 0 443.733333 295.822222c0 8.715378 2.4576 16.861867 6.712889 23.779556z" fill="#FFFFFF" p-id="5104"></path><path d="M364.020622 293.592178a2.275556 2.275556 0 1 1 1.2288-4.369067c9.966933 2.821689 21.253689 4.323556 32.9728 4.323556 7.236267 0 14.336-0.568889 21.071645-1.683911a2.275556 2.275556 0 0 1 0.728177 4.482844c-6.9632 1.137778-14.313244 1.752178-21.799822 1.752178a126.793956 126.793956 0 0 1-34.2016-4.5056z" fill="#6530AF" p-id="5105"></path><path d="M528.042667 319.601778c25.440711 30.583467 93.752889 41.7792 136.6016 2.844444 15.9744-14.518044 0-64.898844-15.223467-85.265066-16.611556-22.209422-96.551822-3.754667-122.88 32.540444 5.165511 7.395556 8.214756 16.384 8.214756 26.100622 0 8.715378-2.4576 16.861867-6.712889 23.779556z" fill="#FFFFFF" p-id="5106"></path><path d="M528.042667 319.601778c25.440711 30.583467 93.752889 41.7792 136.6016 2.844444 15.9744-14.518044 0-64.898844-15.223467-85.265066-16.611556-22.209422-96.551822-3.754667-122.88 32.540444 5.165511 7.395556 8.214756 16.384 8.214756 26.100622 0 8.715378-2.4576 16.861867-6.712889 23.779556z" fill="#FFFFFF" p-id="5107"></path><path d="M614.468267 293.592178a2.275556 2.275556 0 1 0-1.2288-4.369067c-9.966933 2.821689-21.253689 4.323556-32.9728 4.323556-7.236267 0-14.336-0.568889-21.071645-1.683911a2.275556 2.275556 0 0 0-0.728178 4.482844c6.9632 1.137778 14.313244 1.752178 21.799823 1.752178 12.151467 0 23.847822-1.570133 34.2016-4.5056z" fill="#6530AF" p-id="5108"></path><path d="M489.244444 295.822222m-45.511111 0a45.511111 45.511111 0 1 0 91.022223 0 45.511111 45.511111 0 1 0-91.022223 0Z" fill="#FFFFFF" p-id="5109"></path></svg>